<svg xmlns="http://www.w3.org/2000/svg" xml:space="preserve" version="1.1" viewBox="0 0 512 512"><path d="M298.937 415.278h-87.168a5.458 5.458 0 0 0-5.461 5.457v85.805a5.462 5.462 0 0 0 5.461 5.461h87.168a5.462 5.462 0 0 0 5.461-5.461v-85.805a5.457 5.457 0 0 0-5.461-5.457zM405.133 82.793c-7.824-16.949-18.801-31.562-32.922-43.843-14.129-12.274-31.078-21.84-50.852-28.684C301.582 3.422 279.742 0 255.844 0c-22.602 0-43.41 3.746-62.422 11.242-19.015 7.5-35.691 18.203-50.035 32.109-14.339 13.91-25.968 30.75-34.874 50.524-5.695 12.637-10.016 26.25-12.958 40.836-2.679 13.297 7.782 25.66 21.344 25.66h39.348c14.441 0 26.73-9.879 30.609-23.789 11.516-41.294 34.731-61.942 69.641-61.942 10.43 0 19.934 1.687 28.52 5.054 8.582 3.371 15.972 8.098 22.164 14.18 6.195 6.086 11.027 13.199 14.507 21.351 3.473 8.149 5.215 17.11 5.215 26.89 0 5.215-.383 10.051-1.141 14.504-.766 4.458-2.77 9.238-6.031 14.344-3.258 5.11-8.098 10.977-14.504 17.602-6.414 6.629-15.156 14.614-26.242 23.957-25.645 21.297-43.352 41.942-53.13 61.93-5 10.219-8.636 24.016-10.918 41.398-2.266 17.254-3.516 32.192-3.742 56.84-.004.133-.008.246-.008.379v.16h84.422c0-36.504 2.496-53.898 7.496-64.55 2.39-5.43 7.172-11.898 14.344-19.395 7.171-7.496 16.625-16.133 28.359-25.914 27.16-22.379 45.633-43.129 55.41-62.258 10.434-18.902 15.648-39.871 15.648-62.91.001-19.987-3.913-38.46-11.733-55.409z" style="fill:#fff"/></svg>